<svg width="25" height="25" viewBox="0 0 25 25" fill="none" xmlns="http://www.w3.org/2000/svg">
<g id="ei:calendar">
<path id="Vector" d="M18.5 19H6.5C5.65 19 5 18.35 5 17.5V6.5C5 5.65 5.55 5 6.25 5H7V6H6.25C6.15 6 6 6.2 6 6.5V17.5C6 17.8 6.2 18 6.5 18H18.5C18.8 18 19 17.8 19 17.5V6.5C19 6.2 18.85 6 18.75 6H18V5H18.75C19.45 5 20 5.65 20 6.5V17.5C20 18.35 19.35 19 18.5 19Z" fill="#A83332" fill-opacity="0.9"/>
<path id="Vector_2" d="M8.5 7C8.2 7 8 6.8 8 6.5V4.5C8 4.2 8.2 4 8.5 4C8.8 4 9 4.2 9 4.5V6.5C9 6.8 8.8 7 8.5 7ZM16.5 7C16.2 7 16 6.8 16 6.5V4.5C16 4.2 16.2 4 16.5 4C16.8 4 17 4.2 17 4.5V6.5C17 6.8 16.8 7 16.5 7ZM10 5H15V6H10V5ZM6 8H19V9H6V8ZM17 10H18V11H17V10ZM15 10H16V11H15V10ZM13 10H14V11H13V10ZM11 10H12V11H11V10ZM9 10H10V11H9V10ZM17 12H18V13H17V12ZM15 12H16V13H15V12ZM13 12H14V13H13V12ZM11 12H12V13H11V12ZM9 12H10V13H9V12ZM7 12H8V13H7V12ZM17 14H18V15H17V14ZM15 14H16V15H15V14ZM13 14H14V15H13V14ZM11 14H12V15H11V14ZM9 14H10V15H9V14ZM7 14H8V15H7V14ZM15 16H16V17H15V16ZM13 16H14V17H13V16ZM11 16H12V17H11V16ZM9 16H10V17H9V16ZM7 16H8V17H7V16Z" fill="#A83332" fill-opacity="0.9"/>
</g>
</svg>
