<svg width="42" height="42" viewBox="0 0 42 42" fill="none" xmlns="http://www.w3.org/2000/svg">
<g id="fluent:calendar-today-28-regular">
<path id="Vector" d="M37.5 9.375C37.5 8.08207 36.9864 6.84209 36.0721 5.92785C35.1579 5.01361 33.9179 4.5 32.625 4.5H9.375C8.08207 4.5 6.84209 5.01361 5.92785 5.92785C5.01361 6.84209 4.5 8.08207 4.5 9.375V32.625C4.5 33.9179 5.01361 35.1579 5.92785 36.0721C6.84209 36.9864 8.08207 37.5 9.375 37.5H18.372L18.375 36.375V35.25H9.375C8.67881 35.25 8.01113 34.9734 7.51884 34.4812C7.02656 33.9889 6.75 33.3212 6.75 32.625V14.2545H35.25V32.625C35.25 33.3212 34.9734 33.9889 34.4812 34.4812C33.9889 34.9734 33.3212 35.25 32.625 35.25H23.625V37.5H32.625C33.9179 37.5 35.1579 36.9864 36.0721 36.0721C36.9864 35.1579 37.5 33.9179 37.5 32.625V9.375ZM9.375 6.75H32.625C34.074 6.75 35.25 7.926 35.25 9.375V12.0045H6.75V9.375C6.75 7.926 7.926 6.75 9.375 6.75ZM22.875 19.875C22.875 20.3723 22.6775 20.8492 22.3258 21.2008C21.9742 21.5525 21.4973 21.75 21 21.75C20.5027 21.75 20.0258 21.5525 19.6742 21.2008C19.3225 20.8492 19.125 20.3723 19.125 19.875C19.125 19.3777 19.3225 18.9008 19.6742 18.5492C20.0258 18.1975 20.5027 18 21 18C21.4973 18 21.9742 18.1975 22.3258 18.5492C22.6775 18.9008 22.875 19.3777 22.875 19.875ZM23.628 30.465C23.7371 30.5701 23.8663 30.6521 24.0079 30.7061C24.1495 30.76 24.3005 30.7848 24.4519 30.779C24.6033 30.7732 24.752 30.7368 24.889 30.6721C25.026 30.6074 25.1485 30.5157 25.2492 30.4024C25.3499 30.2892 25.4267 30.1568 25.475 30.0132C25.5232 29.8696 25.542 29.7177 25.5301 29.5666C25.5182 29.4156 25.4759 29.2685 25.4058 29.1342C25.3357 28.9999 25.2391 28.8811 25.122 28.785L21.747 25.785C21.5411 25.6022 21.2753 25.5012 21 25.5012C20.7247 25.5012 20.4589 25.6022 20.253 25.785L16.878 28.785C16.7608 28.8811 16.6643 28.9999 16.5942 29.1342C16.5241 29.2685 16.4818 29.4156 16.4699 29.5666C16.458 29.7177 16.4768 29.8696 16.525 30.0132C16.5733 30.1568 16.6501 30.2892 16.7508 30.4024C16.8515 30.5157 16.974 30.6074 17.111 30.6721C17.248 30.7368 17.3967 30.7732 17.5481 30.779C17.6995 30.7848 17.8505 30.76 17.9921 30.7061C18.1337 30.6521 18.2629 30.5701 18.372 30.465L19.875 29.13V37.875C19.875 38.1734 19.9935 38.4595 20.2045 38.6705C20.4155 38.8815 20.7016 39 21 39C21.2984 39 21.5845 38.8815 21.7955 38.6705C22.0065 38.4595 22.125 38.1734 22.125 37.875V29.13L23.628 30.465Z" fill="black"/>
</g>
</svg>
