<svg width="50" height="50" viewBox="0 0 50 50" fill="none" xmlns="http://www.w3.org/2000/svg">
<g id="mdi-light:email">
<path id="Vector" d="M10.4167 10.4165H37.5001C39.1577 10.4165 40.7474 11.075 41.9195 12.2471C43.0916 13.4192 43.7501 15.0089 43.7501 16.6665V35.4165C43.7501 37.0741 43.0916 38.6638 41.9195 39.8359C40.7474 41.008 39.1577 41.6665 37.5001 41.6665H10.4167C8.75914 41.6665 7.16943 41.008 5.99733 39.8359C4.82523 38.6638 4.16675 37.0741 4.16675 35.4165V16.6665C4.16675 15.0089 4.82523 13.4192 5.99733 12.2471C7.16943 11.075 8.75914 10.4165 10.4167 10.4165ZM10.4167 12.4998C9.37508 12.4998 8.45841 12.854 7.75008 13.479L23.9584 23.9582L40.1667 13.479C39.4584 12.854 38.5417 12.4998 37.5001 12.4998H10.4167ZM23.9584 26.479L6.52091 15.1665C6.35425 15.6248 6.25008 16.1457 6.25008 16.6665V35.4165C6.25008 36.5216 6.68907 37.5814 7.47047 38.3628C8.25187 39.1442 9.31168 39.5832 10.4167 39.5832H37.5001C38.6051 39.5832 39.665 39.1442 40.4464 38.3628C41.2278 37.5814 41.6667 36.5216 41.6667 35.4165V16.6665C41.6667 16.1457 41.5626 15.6248 41.3959 15.1665L23.9584 26.479Z" fill="#A83332" fill-opacity="0.9"/>
</g>
</svg>
