<svg width="40" height="40" viewBox="0 0 40 40" fill="none" xmlns="http://www.w3.org/2000/svg">
<g id="ant-design:instagram-filled">
<path id="Vector" d="M19.5681 14.4791C16.7638 14.4791 14.4753 16.7677 14.4753 19.5719C14.4753 22.3762 16.7638 24.6647 19.5681 24.6647C22.3724 24.6647 24.6609 22.3762 24.6609 19.5719C24.6609 16.7677 22.3724 14.4791 19.5681 14.4791ZM34.8427 19.5719C34.8427 17.463 34.8618 15.3732 34.7434 13.268C34.6249 10.8229 34.0671 8.6528 32.2791 6.86478C30.4873 5.07294 28.321 4.51896 25.8759 4.40052C23.7669 4.28208 21.6771 4.30119 19.5719 4.30119C17.463 4.30119 15.3732 4.28208 13.268 4.40052C10.8229 4.51896 8.6528 5.07676 6.86478 6.86478C5.07294 8.65662 4.51896 10.8229 4.40052 13.268C4.28208 15.377 4.30119 17.4668 4.30119 19.5719C4.30119 21.6771 4.28208 23.7707 4.40052 25.8759C4.51896 28.321 5.07676 30.4911 6.86478 32.2791C8.65662 34.0709 10.8229 34.6249 13.268 34.7434C15.377 34.8618 17.4668 34.8427 19.5719 34.8427C21.6809 34.8427 23.7707 34.8618 25.8759 34.7434C28.321 34.6249 30.4911 34.0671 32.2791 32.2791C34.0709 30.4873 34.6249 28.321 34.7434 25.8759C34.8656 23.7707 34.8427 21.6809 34.8427 19.5719ZM19.5681 27.4079C15.2318 27.4079 11.7322 23.9083 11.7322 19.5719C11.7322 15.2356 15.2318 11.736 19.5681 11.736C23.9045 11.736 27.4041 15.2356 27.4041 19.5719C27.4041 23.9083 23.9045 27.4079 19.5681 27.4079ZM27.725 13.2451C26.7126 13.2451 25.895 12.4275 25.895 11.4151C25.895 10.4026 26.7126 9.58501 27.725 9.58501C28.7375 9.58501 29.5551 10.4026 29.5551 11.4151C29.5554 11.6555 29.5082 11.8936 29.4164 12.1157C29.3245 12.3379 29.1897 12.5398 29.0197 12.7098C28.8497 12.8798 28.6479 13.0146 28.4257 13.1064C28.2035 13.1983 27.9654 13.2454 27.725 13.2451Z" fill="#A83332" fill-opacity="0.9"/>
</g>
</svg>
