<svg width="50" height="50" viewBox="0 0 50 50" fill="none" xmlns="http://www.w3.org/2000/svg">
<g id="gridicons:location">
<path id="Vector" d="M39.5834 18.7498C39.5834 16.8347 39.2062 14.9384 38.4733 13.169C37.7404 11.3997 36.6662 9.79205 35.3121 8.43786C33.9579 7.08368 32.3502 6.00948 30.5809 5.27659C28.8116 4.54371 26.9152 4.1665 25.0001 4.1665C23.085 4.1665 21.1886 4.54371 19.4193 5.27659C17.6499 6.00948 16.0423 7.08368 14.6881 8.43786C13.3339 9.79205 12.2597 11.3997 11.5268 13.169C10.794 14.9384 10.4167 16.8347 10.4167 18.7498C10.4167 21.6394 11.2688 24.3269 12.7188 26.5936H12.7022L25.0001 45.8332L37.298 26.5936H37.2834C38.7852 24.2531 39.5835 21.5307 39.5834 18.7498ZM25.0001 24.9998C23.3425 24.9998 21.7528 24.3414 20.5807 23.1693C19.4086 21.9972 18.7501 20.4074 18.7501 18.7498C18.7501 17.0922 19.4086 15.5025 20.5807 14.3304C21.7528 13.1583 23.3425 12.4998 25.0001 12.4998C26.6577 12.4998 28.2474 13.1583 29.4195 14.3304C30.5916 15.5025 31.2501 17.0922 31.2501 18.7498C31.2501 20.4074 30.5916 21.9972 29.4195 23.1693C28.2474 24.3414 26.6577 24.9998 25.0001 24.9998Z" fill="#A83332" fill-opacity="0.9"/>
</g>
</svg>
