<svg width="23" height="23" viewBox="0 0 23 23" fill="none" xmlns="http://www.w3.org/2000/svg">
<g id="fluent:edit-20-regular">
<path id="Vector" d="M19.7586 3.3661C19.444 3.03533 19.0665 2.77085 18.6481 2.58823C18.2298 2.40561 17.7791 2.30855 17.3227 2.30277C16.8663 2.29698 16.4133 2.38258 15.9905 2.55454C15.5677 2.72649 15.1835 2.98131 14.8607 3.304L4.07946 14.0853C3.70263 14.462 3.44094 14.9383 3.32506 15.4584L2.31651 20.0009C2.29547 20.0952 2.29857 20.1934 2.32554 20.2863C2.35251 20.3792 2.40248 20.4638 2.47081 20.5322C2.53914 20.6007 2.62363 20.6508 2.71647 20.6779C2.8093 20.705 2.90748 20.7083 3.00191 20.6874L7.51796 19.6835C8.05551 19.5638 8.5478 19.2933 8.93706 18.9038L19.6988 8.14205C20.3296 7.51098 20.6888 6.65844 20.7 5.76624C20.7112 4.87404 20.3734 4.01277 19.7586 3.3661ZM15.6738 4.11705C15.8841 3.90366 16.1346 3.73401 16.4108 3.61785C16.687 3.5017 16.9835 3.44135 17.2831 3.44028C17.5827 3.4392 17.8796 3.49743 18.1567 3.6116C18.4337 3.72576 18.6854 3.89362 18.8973 4.1055C19.1091 4.31737 19.277 4.56907 19.3912 4.8461C19.5053 5.12314 19.5636 5.42002 19.5625 5.71965C19.5614 6.01929 19.5011 6.31575 19.3849 6.59195C19.2688 6.86816 19.0991 7.11865 18.8857 7.329L18.1141 8.10065L14.9021 4.88985L15.6738 4.11705ZM14.0891 5.70405L17.301 8.91485L8.12401 18.0919C7.88935 18.3268 7.59254 18.49 7.26841 18.5622L3.63441 19.3695L4.44861 15.7091C4.51646 15.402 4.67056 15.1214 4.89251 14.8995L14.0891 5.70405Z" fill="#A83332" fill-opacity="0.9"/>
</g>
</svg>
