<svg width="50" height="50" viewBox="0 0 50 50" fill="none" xmlns="http://www.w3.org/2000/svg">
<g id="circum:mobile-1">
<path id="Vector" d="M20.8334 39.4437H29.1667C29.443 39.4437 29.708 39.3339 29.9033 39.1386C30.0987 38.9432 30.2084 38.6783 30.2084 38.402C30.2084 38.1258 30.0987 37.8608 29.9033 37.6654C29.708 37.4701 29.443 37.3604 29.1667 37.3604H20.8334C20.5571 37.3604 20.2922 37.4701 20.0968 37.6654C19.9015 37.8608 19.7917 38.1258 19.7917 38.402C19.7917 38.6783 19.9015 38.9432 20.0968 39.1386C20.2922 39.3339 20.5571 39.4437 20.8334 39.4437Z" fill="#A83332" fill-opacity="0.9"/>
<path id="Vector_2" d="M34.8479 45.702H15.1521C13.845 45.624 12.6217 45.0331 11.7481 44.0577C10.8745 43.0823 10.4215 41.8014 10.4875 40.4937V9.50619C10.4215 8.19847 10.8745 6.91757 11.7481 5.94218C12.6217 4.96679 13.845 4.37583 15.1521 4.29785H34.8479C36.155 4.37583 37.3784 4.96679 38.252 5.94218C39.1255 6.91757 39.5786 8.19847 39.5125 9.50619V40.4937C39.5786 41.8014 39.1255 43.0823 38.252 44.0577C37.3784 45.0331 36.155 45.624 34.8479 45.702ZM15.1521 6.38118C14.3985 6.46078 13.7062 6.83258 13.2236 7.41681C12.7411 8.00104 12.5067 8.75115 12.5709 9.50619V40.4937C12.5067 41.2487 12.7411 41.9988 13.2236 42.5831C13.7062 43.1673 14.3985 43.5391 15.1521 43.6187H34.8479C35.6015 43.5391 36.2939 43.1673 36.7764 42.5831C37.259 41.9988 37.4934 41.2487 37.4292 40.4937V9.50619C37.4934 8.75115 37.259 8.00104 36.7764 7.41681C36.2939 6.83258 35.6015 6.46078 34.8479 6.38118H15.1521Z" fill="#A83332" fill-opacity="0.9"/>
</g>
</svg>
