<?xml version="1.0" encoding="UTF-8"?>
<svg version="1.1" xmlns="http://www.w3.org/2000/svg" width="790" height="437">
<path d="M0 0 C4.06506061 1.18256309 7.1045594 3.08520202 10.671875 5.328125 C13.49095923 7.03231716 16.35145091 8.49573264 19.3125 9.9375 C24.62357717 12.52459687 29.63793065 15.45564061 34.6484375 18.58203125 C37.38020317 20.21155008 37.38020317 20.21155008 40.5546875 20.14453125 C43.4375 21 43.4375 21 44.49951172 22.63891602 C45.51390914 25.02078991 46.36343767 27.42074222 47.1875 29.875 C52.11910893 43.30457913 58.2546303 56.24959461 66.81640625 67.77734375 C68.53695593 70.13636247 70.04303014 72.56967781 71.5625 75.0625 C76.62639035 83.10985623 82.58209136 90.52138556 88.4375 98 C89.17355469 98.94230469 89.90960938 99.88460937 90.66796875 100.85546875 C94.764223 106.03279629 99.01133496 111.07666404 103.29248047 116.10107422 C106.31274603 119.64970279 109.26469556 123.24514576 112.1875 126.875 C115.20806977 130.58890341 118.33651458 134.02048903 121.77734375 137.34375 C123.49274835 139.05511835 125.05547857 140.84189408 126.625 142.6875 C131.56818597 148.43565433 137.04069165 153.68294744 142.4375 159 C147.15104196 157.42881935 149.72962409 154.06181386 152.4375 150 C153.0975 150 153.7575 150 154.4375 150 C154.68113281 149.42765625 154.92476563 148.8553125 155.17578125 148.265625 C156.66267298 145.59566462 158.41833908 143.86170993 160.625 141.75 C164.79589427 137.6651718 168.6531799 133.44085906 172.4375 129 C173.36537282 127.9240369 174.29380557 126.84855654 175.22265625 125.7734375 C187.578239 111.45070809 199.32243376 96.74301388 210.4375 81.4375 C211.00178711 80.6633374 211.56607422 79.8891748 212.14746094 79.09155273 C212.67629883 78.35880127 213.20513672 77.6260498 213.75 76.87109375 C214.22050781 76.22068115 214.69101562 75.57026855 215.17578125 74.90014648 C216.44096591 72.99478035 217.45995261 71.0655278 218.4375 69 C219.0975 69 219.7575 69 220.4375 69 C220.67082031 68.17242187 220.90414063 67.34484375 221.14453125 66.4921875 C222.68140509 62.34123521 224.80184767 58.87362476 227.125 55.125 C230.57520848 49.41437464 233.67617141 43.69385545 236.3125 37.5625 C236.59843018 36.89968018 236.88436035 36.23686035 237.17895508 35.55395508 C238.37721056 32.71598157 239.47672878 29.88047483 240.4375 26.953125 C241.96400205 22.34635989 243.02672723 19.81100288 247.46875 17.578125 C248.6750708 16.95031128 248.6750708 16.95031128 249.90576172 16.30981445 C250.74123535 15.87757568 251.57670898 15.44533691 252.4375 15 C254.0393501 14.09165562 255.63576215 13.17365372 257.2265625 12.24609375 C258.02320313 11.78396484 258.81984375 11.32183594 259.640625 10.84570312 C260.43984375 10.38099609 261.2390625 9.91628906 262.0625 9.4375 C264.45469826 8.04842002 266.84674066 6.65965798 269.24707031 5.28466797 C270.64095542 4.46716647 272.01811588 3.61991517 273.37011719 2.73486328 C276.25042359 0.892954 278.06369928 -0.00615895 281.51953125 0.05078125 C284.71585814 1.09055024 287.26600408 2.42061712 290.125 4.1875 C294.10268495 6.59777007 298.08712756 8.92939028 302.1875 11.125 C306.1242753 13.25222008 309.94405485 15.49430402 313.71484375 17.90234375 C315.25011 18.8805973 316.8110523 19.81828648 318.375 20.75 C320.4375 22 320.4375 22 321.4375 23 C321.4921455 24.35021305 321.47852758 25.70328966 321.43652344 27.05395508 C321.41450867 27.91608109 321.3924939 28.77820709 321.36981201 29.66645813 C321.3457428 30.60797226 321.32167358 31.54948639 321.296875 32.51953125 C321.26533227 35.5604492 321.24543624 38.60131586 321.22607422 41.64233398 C321.20059312 43.73646093 321.15378936 45.83044946 321.08447266 47.92358398 C320.27603313 60.72395988 320.27603313 60.72395988 325.2644043 71.99462891 C328.37821408 75.10125848 331.79895042 77.54184853 335.4375 80 C336.89381012 81.22803383 338.33716837 82.47218427 339.75 83.75 C340.36617187 84.28625 340.98234375 84.8225 341.6171875 85.375 C348.57793812 91.58888896 354.94418556 98.44669265 360.4375 106 C360.4375 106.66 360.4375 107.32 360.4375 108 C361.0107753 107.98810135 361.5840506 107.9762027 362.17469788 107.96394348 C368.16164286 107.85055592 374.14555838 107.81465884 380.13354492 107.82299805 C382.36546452 107.81603797 384.59741437 107.78956175 386.82885742 107.74291992 C405.43265776 107.37391207 405.43265776 107.37391207 410.42529297 111.42333984 C412.22549117 114.25595662 413.38074882 116.82683128 414.4375 120 C415.0975 120.99 415.7575 121.98 416.4375 123 C416.4375 123.99 416.4375 124.98 416.4375 126 C417.0975 126 417.7575 126 418.4375 126 C420.48950092 129.3360146 422.49811994 132.69621006 424.5 136.0625 C425.08072266 137.00544922 425.66144531 137.94839844 426.25976562 138.91992188 C428.56684328 142.83785848 430.34326195 145.87678431 430.7265625 150.4453125 C428.72630739 155.9611675 425.78890217 160.80961825 422.75 165.8125 C422.13705078 166.84181641 421.52410156 167.87113281 420.89257812 168.93164062 C416.08194157 176.99698145 416.08194157 176.99698145 413.60693359 180.84912109 C413.0495752 181.72777832 412.4922168 182.60643555 411.91796875 183.51171875 C411.16422974 184.66933716 411.16422974 184.66933716 410.39526367 185.8503418 C409.24619911 188.42936639 409.46684743 189.40318924 410.4375 192 C410.75847656 193.11955078 410.75847656 193.11955078 411.0859375 194.26171875 C411.32570313 195.06222656 411.56546875 195.86273438 411.8125 196.6875 C412.16441406 197.86892578 412.16441406 197.86892578 412.5234375 199.07421875 C413.26474103 201.44702362 414.04647902 203.79568281 414.84765625 206.1484375 C416.59229342 211.36016225 418.06107903 216.63446902 419.5 221.9375 C419.75587891 222.86240234 420.01175781 223.78730469 420.27539062 224.74023438 C421.52007816 229.30622182 422.56133029 233.7517332 423.26171875 238.43359375 C423.95913469 242.02065886 424.23394392 242.80456119 426.984375 245.4453125 C428.04140625 245.99960937 429.0984375 246.55390625 430.1875 247.125 C431.04770752 247.59764282 431.04770752 247.59764282 431.92529297 248.07983398 C433.13583087 248.74285698 434.35403662 249.39205109 435.57910156 250.02783203 C438.02889096 251.30936926 440.42158089 252.68087485 442.81738281 254.06005859 C444.45699725 255.00189643 446.10708769 255.9254298 447.7578125 256.84765625 C452.73522328 259.75907169 457.57264047 262.9041803 462.4375 266 C462.4375 278.54 462.4375 291.08 462.4375 304 C249.9175 304 37.3975 304 -181.5625 304 C-181.5625 291.46 -181.5625 278.92 -181.5625 266 C-171.46216469 259.26644313 -171.46216469 259.26644313 -166.1015625 256.23828125 C-164.40580078 255.27245117 -164.40580078 255.27245117 -162.67578125 254.28710938 C-160.91902764 253.29161566 -159.1613714 252.29775575 -157.40283203 251.30541992 C-155.67507241 250.32882912 -153.95076611 249.34613669 -152.2265625 248.36328125 C-150.70216553 247.50150269 -150.70216553 247.50150269 -149.14697266 246.62231445 C-145.61369074 244.40441739 -143.84933768 243.23625364 -142.89453125 239.12109375 C-142.72308594 237.90550781 -142.55164063 236.68992187 -142.375 235.4375 C-141.11679785 227.64700073 -138.9661042 220.21641825 -136.625 212.6875 C-136.28895752 211.60331787 -135.95291504 210.51913574 -135.60668945 209.40209961 C-135.2737085 208.34514893 -134.94072754 207.28819824 -134.59765625 206.19921875 C-134.27466553 205.15693115 -133.9516748 204.11464355 -133.61889648 203.04077148 C-132.5625 200 -132.5625 200 -131.19555664 197.17993164 C-129.28551403 193.11567828 -128.1078772 190.4964824 -129.44799805 186.08520508 C-131.07781111 182.92400324 -132.89402484 180.01584988 -134.875 177.0625 C-136.14192708 175.05338542 -137.40885417 173.04427083 -138.67578125 171.03515625 C-139.63218506 169.55039795 -139.63218506 169.55039795 -140.60791016 168.03564453 C-150.82549794 152.16686031 -150.82549794 152.16686031 -149.5625 146 C-148.36615188 143.44754299 -146.95113361 141.27559651 -145.30712891 138.99316406 C-142.58921978 135.06231279 -140.97781579 131.42448284 -139.53125 126.85546875 C-136.86597122 119.56853491 -134.32022838 113.27673393 -127.5625 109 C-118.14246661 106.59080889 -107.77022398 107.51958654 -98.17919922 108.27636719 C-88.5640354 109.37274694 -88.5640354 109.37274694 -79.56375122 106.80871582 C-75.70592159 103.42130056 -73.1824545 99.37147516 -70.5625 95 C-69.36595487 93.514784 -68.14476372 92.04812575 -66.875 90.625 C-66.33101563 90.00753906 -65.78703125 89.39007813 -65.2265625 88.75390625 C-62.8792174 86.27982656 -60.34995876 84.07105879 -57.75 81.8671875 C-54.34873576 78.96396553 -51.06541635 75.9312314 -47.76171875 72.91796875 C-45.5625 71 -45.5625 71 -42.5625 69 C-42.14897839 66.98723801 -42.14897839 66.98723801 -42.27294922 64.64550781 C-42.28220428 63.74407043 -42.29145935 62.84263306 -42.30099487 61.91387939 C-42.32283844 60.93683044 -42.34468201 59.95978149 -42.3671875 58.953125 C-42.37415972 56.89063021 -42.37931035 54.8281286 -42.3828125 52.765625 C-42.40342884 49.50824393 -42.43744122 46.25288003 -42.50390625 42.99609375 C-42.56114479 39.85560608 -42.56200071 36.71903802 -42.5546875 33.578125 C-42.60567093 32.12469696 -42.60567093 32.12469696 -42.65768433 30.64190674 C-42.58763956 24.01270606 -42.58763956 24.01270606 -39.63259888 21.09350586 C-37.33394155 19.54200859 -35.03801869 18.2458871 -32.5625 17 C-31.22821104 16.22484541 -29.89679816 15.44468356 -28.5703125 14.65625 C-27.27818864 13.93364742 -25.98389037 13.21491997 -24.6875 12.5 C-24.00276611 12.11835693 -23.31803223 11.73671387 -22.61254883 11.34350586 C-17.66148392 8.58943615 -12.68949922 5.87377753 -7.69921875 3.19140625 C-1.97561475 0 -1.97561475 0 0 0 Z M27.4375 69 C25.29704268 74.48094778 23.54347688 79.91841056 22.06835938 85.61108398 C21.85150482 86.43396912 21.63465027 87.25685425 21.41122437 88.10467529 C20.69732787 90.81747251 19.98931912 93.53177027 19.28125 96.24609375 C18.77419965 98.17678555 18.26674495 100.10737119 17.75891113 102.03785706 C16.41805063 107.13883612 15.08201056 112.24106484 13.74719238 117.34362793 C11.6491294 125.36042371 9.54373555 133.37529985 7.43891525 141.39032364 C6.91645409 143.38010995 6.39417929 145.3699452 5.87208939 147.35982895 C1.69780646 163.26799358 -2.53304291 179.16033559 -6.81481934 195.03990173 C-9.90711688 206.51329919 -12.93701881 218.00225932 -15.9375 229.5 C-16.35098694 231.08387764 -16.35098694 231.08387764 -16.77282715 232.69975281 C-17.19684564 234.32521842 -17.62071629 235.95072261 -18.04438782 237.57627869 C-20.38111527 246.53679386 -22.75399216 255.48729033 -25.14453125 264.43359375 C-25.59560242 266.12393234 -25.59560242 266.12393234 -26.05578613 267.84841919 C-28.46837716 276.88929433 -28.46837716 276.88929433 -29.63616943 281.23583984 C-30.46246489 284.31132964 -31.28435533 287.38796709 -32.10546875 290.46484375 C-32.35488724 291.38776718 -32.60430573 292.31069061 -32.86128235 293.26158142 C-33.08648056 294.10846024 -33.31167877 294.95533905 -33.54370117 295.82788086 C-33.74146652 296.56501816 -33.93923187 297.30215546 -34.14299011 298.06163025 C-34.66826344 300.15814504 -34.66826344 300.15814504 -34.5625 303 C82.2575 303 199.0775 303 319.4375 303 C318.70614152 296.68016465 318.70614152 296.68016465 317.39697266 290.62744141 C317.08996933 289.4802916 317.08996933 289.4802916 316.77676392 288.30996704 C316.55394745 287.49869354 316.33113098 286.68742004 316.1015625 285.8515625 C315.86271332 284.96367035 315.62386414 284.0757782 315.3777771 283.16098022 C314.61104851 280.31426647 313.83718207 277.46955854 313.0625 274.625 C312.07309239 270.97200823 311.08684643 267.3181685 310.1015625 263.6640625 C309.83051193 262.65976196 309.55946136 261.65546143 309.28019714 260.62072754 C305.35047743 246.01780898 301.55090374 231.38037231 297.72634602 216.74965477 C294.83477507 205.69035288 291.93120807 194.63420413 289.02734375 183.578125 C288.47745583 181.48428393 287.92756976 179.39044238 287.37768555 177.29660034 C286.26806962 173.07157202 285.15836044 168.84656819 284.04858398 164.62158203 C282.93096364 160.3667274 281.8134496 156.11184487 280.69604492 151.85693359 C280.28110307 150.27690426 280.28110307 150.27690426 279.85777855 148.66495514 C279.30116319 146.54544493 278.74455433 144.42593301 278.18795204 142.30641937 C276.82678892 137.12345186 275.46524781 131.94058419 274.10287476 126.75793457 C273.57492141 124.74943282 273.04697739 122.74092861 272.51904297 120.73242188 C272.2616503 119.75319008 272.00425762 118.77395828 271.73906517 117.7650528 C270.21257324 111.95565552 268.68982103 106.14529393 267.17043591 100.33403397 C266.23185723 96.74497174 265.2916858 93.15632781 264.35128975 89.56774139 C263.9152089 87.90183893 263.47991597 86.23573 263.04545403 84.5694046 C262.45488653 82.30453605 261.86166976 80.04037754 261.26782227 77.77636719 C260.93645767 76.50831238 260.60509308 75.24025757 260.26368713 73.93377686 C259.56365499 71.09562763 259.56365499 71.09562763 258.4375 69 C257.4475 69 256.4575 69 255.4375 69 C257.68257994 78.81254107 260.06135817 88.56962528 262.72396851 98.27748108 C266.74465389 112.9543785 270.68280007 127.65100175 274.52734375 142.375 C275.00194079 144.18995019 275.47659237 146.00488611 275.95129395 147.81980896 C279.43391339 161.13949107 282.90490519 174.46220678 286.375 187.78515625 C286.87763946 189.71479805 287.38027923 191.64443978 287.88291931 193.57408142 C288.38809779 195.51357883 288.89327051 197.45307773 289.3984375 199.39257812 C289.64889611 200.35414605 289.89935472 201.31571398 290.15740299 202.30642033 C291.42495765 207.17325877 292.69197198 212.04023692 293.95800781 216.9074707 C295.22726635 221.7868991 296.49809693 226.66591606 297.76980591 231.54470634 C298.23573997 233.33325797 298.7011838 235.12193743 299.16598511 236.91078377 C304.46627812 257.30745152 309.97633606 277.64475258 315.4375 298 C201.5875 298 87.7375 298 -29.5625 298 C-26.9225 288.43 -24.2825 278.86 -21.5625 269 C-19.71414807 262.08010582 -17.87515182 255.15864197 -16.05859375 248.23046875 C-15.57295446 246.38404683 -15.08712922 244.53767381 -14.60113525 242.69134521 C-13.58604269 238.83399657 -12.57184033 234.9764157 -11.55844116 231.11862183 C-8.90286037 221.01018209 -6.24079811 210.90344848 -3.578125 200.796875 C-3.31571707 199.80071104 -3.05330914 198.80454708 -2.78294945 197.77819633 C1.68503393 180.81962624 6.19769105 163.87363765 10.75 146.9375 C14.86634397 131.61014902 18.98081542 116.28240678 23.0249939 100.93582153 C23.49767742 99.14399343 23.97175196 97.35253152 24.44741821 95.56149292 C26.78442643 86.75637766 29.04592289 78.0159745 30.4375 69 C29.4475 69 28.4575 69 27.4375 69 Z " fill="#8A363D" transform="translate(258.5625,122)"/>
<path d="M0 0 C2.81342586 3.41441589 5.3883874 6.93677271 7.90625 10.5690918 C17.6192613 24.57836691 28.05525915 37.95920914 39.25 50.8125 C41.84394922 53.79662543 44.3342255 56.85640198 46.8125 59.9375 C49.81087425 63.63279366 52.91941905 67.0401963 56.33984375 70.34375 C58.05524835 72.05511835 59.61797857 73.84189408 61.1875 75.6875 C66.13068597 81.43565433 71.60319165 86.68294744 77 92 C81.71354196 90.42881935 84.29212409 87.06181386 87 83 C87.66 83 88.32 83 89 83 C89.24363281 82.42765625 89.48726562 81.8553125 89.73828125 81.265625 C91.22517298 78.59566462 92.98083908 76.86170993 95.1875 74.75 C99.35839427 70.6651718 103.2156799 66.44085906 107 62 C107.92787282 60.9240369 108.85630557 59.84855654 109.78515625 58.7734375 C122.140739 44.45070809 133.88493376 29.74301388 145 14.4375 C145.56428711 13.6633374 146.12857422 12.8891748 146.70996094 12.09155273 C147.23879883 11.35880127 147.76763672 10.6260498 148.3125 9.87109375 C148.78300781 9.22068115 149.25351562 8.57026855 149.73828125 7.90014648 C151.24229892 5.71908243 151.24229892 5.71908243 153 2 C165.21 2 177.42 2 190 2 C194.6015215 16.95494488 194.6015215 16.95494488 196.41015625 23.76171875 C196.62256454 24.55375198 196.83497284 25.34578522 197.05381775 26.16181946 C197.50275751 27.83779927 197.95054857 29.51408719 198.3972168 31.19067383 C199.03497734 33.58420671 199.67628272 35.9767625 200.31835938 38.36914062 C210.27989797 75.56968563 219.88364742 112.86762113 229.59594727 150.13378906 C230.86641516 155.00848622 232.13733957 159.8830642 233.40848923 164.75758362 C233.90675604 166.66870089 234.40484818 168.57986371 234.90275955 170.49107361 C237.57210849 180.73716553 240.25461132 190.97946935 242.97216797 201.21289062 C243.44464712 202.99525127 243.91709551 204.77762007 244.38951111 206.55999756 C245.27288239 209.89237349 246.16106188 213.22341681 247.05201721 216.55377197 C247.44558008 218.03677784 247.83897699 219.51982777 248.23217773 221.00292969 C248.41297567 221.67324471 248.59377361 222.34355972 248.78005028 223.03418732 C249.50739215 225.79153979 250 228.13175048 250 231 C136.15 231 22.3 231 -95 231 C-93.76344884 224.81724421 -92.50567588 218.7738307 -90.88720703 212.70141602 C-90.58320465 211.54623018 -90.58320465 211.54623018 -90.2730608 210.36770725 C-89.60417505 207.82900809 -88.93103735 205.29145788 -88.2578125 202.75390625 C-87.77698751 200.93291431 -87.29640788 199.11185758 -86.8160553 197.29074097 C-85.524418 192.39716281 -84.22895189 187.50460585 -82.93267441 182.6122551 C-81.84974675 178.52315173 -80.76911033 174.43344429 -79.68845654 170.34373951 C-71.94256466 141.03141342 -64.14471067 111.73299085 -56.31853771 82.44200802 C-51.21308494 63.33322654 -46.13823607 44.21703947 -41.1550293 25.07592773 C-40.95721863 24.31650375 -40.75940796 23.55707977 -40.55560303 22.77464294 C-40.04719695 20.82133926 -39.54000981 18.86771842 -39.03295898 16.9140625 C-37.71884109 11.93463966 -36.35503057 6.96844541 -35 2 C-23.45 2 -11.9 2 0 2 C0 1.34 0 0.68 0 0 Z " fill="#FEC107" transform="translate(324,189)"/>
<path d="M0 0 C0.89203125 0.71542969 1.7840625 1.43085937 2.703125 2.16796875 C3.40953125 2.70808594 4.1159375 3.24820313 4.84375 3.8046875 C20.58382228 16.50551818 30.44033915 35.99639173 35.703125 55.16796875 C35.94804687 56.02777344 36.19296875 56.88757813 36.4453125 57.7734375 C39.86525961 72.50731921 38.83434137 89.03809103 33.703125 103.16796875 C33.34903564 104.15410156 33.34903564 104.15410156 32.98779297 105.16015625 C25.08749444 126.75736177 12.3520795 145.8225998 -1.296875 164.16796875 C-2.21115442 165.4152056 -3.12520108 166.6626131 -4.0390625 167.91015625 C-10.74718761 177.01601345 -17.82921519 185.67757664 -25.296875 194.16796875 C-25.95429688 194.9259375 -26.61171875 195.68390625 -27.2890625 196.46484375 C-31.13386702 200.89434204 -35.0550924 205.25442004 -38.98828125 209.60546875 C-40.48330664 211.26492164 -41.97081203 212.93119327 -43.44921875 214.60546875 C-49.47009934 221.39937379 -55.83180089 227.80134754 -62.296875 234.16796875 C-70.36032077 227.50686137 -77.72785792 220.16475335 -84.52734375 212.21875 C-86.53473523 209.89230292 -88.60154138 207.62604189 -90.671875 205.35546875 C-94.5724584 201.03320066 -98.27632485 196.58363707 -101.93359375 192.0546875 C-103.96161883 189.57748 -106.03545389 187.14994084 -108.13354492 184.73217773 C-119.62611732 171.4242234 -129.8522442 156.988774 -139.296875 142.16796875 C-139.86631836 141.28044922 -139.86631836 141.28044922 -140.44726562 140.375 C-157.33330933 113.85211705 -167.68032582 86.69837726 -160.74560547 55.09277344 C-154.90887849 30.05645379 -139.01964595 8.36313043 -117.6875 -5.765625 C-80.36964492 -28.50888 -34.7494256 -27.1536742 0 0 Z " fill="#8A363B" transform="translate(464.296875,45.83203125)"/>
<path d="M0 0 C12.6139856 10.62723601 21.38285811 25.07034739 23.29833984 41.56982422 C24.74345306 59.9065583 20.78601867 77.21176116 8.74267578 91.49072266 C-2.77599428 104.66728938 -17.00242287 112.76762389 -34.66210938 114.21875 C-45.60490475 114.8245795 -55.95641672 114.85560285 -66 110 C-67.05058594 109.525625 -68.10117187 109.05125 -69.18359375 108.5625 C-86.29215131 100.17950831 -96.63526263 86.83079982 -103 69 C-103.36738281 67.97777344 -103.73476563 66.95554687 -104.11328125 65.90234375 C-107.48925123 53.641625 -106.72733766 36.31238122 -101 25 C-100.56429688 24.07703125 -100.12859375 23.1540625 -99.6796875 22.203125 C-91.13860186 5.30764412 -76.99253978 -6.83543421 -59 -12.9375 C-38.36586762 -17.86777942 -16.76796637 -12.58213042 0 0 Z " fill="#F6C200" transform="translate(443,70)"/>
<path d="M0 0 C7.11275937 4.31076325 11.33061957 9.28403008 14.0625 17.25 C15.92046887 26.81690989 11.13822571 34.90845315 6 42.625 C2.68295598 47.33127535 -0.92280762 51.76279086 -4.75 56.0625 C-5.20576416 56.58440918 -5.66152832 57.10631836 -6.13110352 57.64404297 C-7.45703125 59.08203125 -7.45703125 59.08203125 -9.9375 61.25 C-13.9375 61.25 -13.9375 61.25 -16.3828125 59.15234375 C-27.08446693 47.31188352 -37.59090086 35.40007653 -37.3125 18.765625 C-36.58785726 11.97209933 -33.49770138 7.44256787 -28.5625 2.875 C-19.85668564 -3.85052182 -9.84703751 -5.06419072 0 0 Z " fill="#8C393D" transform="translate(451.9375,304.75)"/>
<path d="M0 0 C4.79572991 2.5457509 8.47627442 6.47208009 10.8984375 11.31640625 C11.39978005 17.75672982 11.87792668 23.92484026 7.8984375 29.31640625 C2.95868306 34.25616069 -0.67036473 36.4531162 -7.7890625 36.75390625 C-13.23776222 36.69460964 -16.40614894 35.77398334 -20.4765625 32.14453125 C-25.11479675 26.92651772 -26.85581487 21.76780061 -26.5546875 14.77734375 C-25.54717226 9.30549375 -22.46722959 5.58452569 -18.4765625 1.87890625 C-13.18153016 -1.60466766 -6.00173985 -1.9522388 0 0 Z " fill="#2EB572" transform="translate(448.1015625,373.68359375)"/>
<path d="M0 0 C4.03417434 2.40498855 6.46492092 4.55017231 8.25 8.9375 C9.19109673 15.11288713 8.94283365 20.71659725 5.25 25.9375 C0.29169925 30.52392819 -3.68312043 31.29517473 -10.24609375 31.21875 C-15.20046555 30.6622527 -17.88925306 27.91456409 -21.0625 24.3125 C-23.97543891 20.2128082 -24.23349166 16.87985923 -23.75 11.9375 C-21.95549516 6.05551191 -19.58138729 3.43254612 -14.75 -0.0625 C-10.18303562 -2.34598219 -4.72784891 -1.33955719 0 0 Z " fill="#F5C100" transform="translate(447.75,311.0625)"/>
<path d="M0 0 C8.04275998 4.50436557 11.62794789 9.52630235 14.9609375 18.0078125 C15.66643144 20.58909033 15.74820709 22.77433135 15.625 25.4375 C16.615 25.7675 17.605 26.0975 18.625 26.4375 C18.295 27.7575 17.965 29.0775 17.625 30.4375 C17.00625 30.47875 16.3875 30.52 15.75 30.5625 C14.698125 30.995625 14.698125 30.995625 13.625 31.4375 C12.93783917 33.43055154 12.27438873 35.43182337 11.625 37.4375 C5.7341141 48.32176841 -2.39393044 57.97623511 -11.375 66.4375 C-15.3698063 64.86182234 -17.61695175 62.23614856 -20.4375 59.0625 C-21.29472656 58.10601562 -22.15195312 57.14953125 -23.03515625 56.1640625 C-25.375 53.4375 -25.375 53.4375 -26.796875 51.0703125 C-28.33575311 49.10945579 -28.33575311 49.10945579 -31.29296875 49.265625 C-32.37191406 49.40484375 -33.45085937 49.5440625 -34.5625 49.6875 C-35.64917969 49.81640625 -36.73585938 49.9453125 -37.85546875 50.078125 C-38.68691406 50.19671875 -39.51835937 50.3153125 -40.375 50.4375 C-40.045 49.1175 -39.715 47.7975 -39.375 46.4375 C-37.065 45.7775 -34.755 45.1175 -32.375 44.4375 C-33.13296875 43.14779297 -33.13296875 43.14779297 -33.90625 41.83203125 C-38.45698807 33.71662551 -41.07393322 26.946637 -39.375 17.4375 C-36.57768559 7.97170622 -30.2821687 3.30773075 -22.0625 -1.5 C-14.16937678 -3.77428974 -7.48565991 -3.4778097 0 0 Z M-33.12109375 9.49609375 C-37.83221374 16.79025772 -38.35120554 22.88859323 -37.375 31.4375 C-33.56880964 44.19835076 -22.33155485 54.93869027 -13.375 64.4375 C-5.95605919 61.02446675 -1.43924099 54.40665494 3.3125 48 C3.77599854 47.37971924 4.23949707 46.75943848 4.71704102 46.12036133 C10.6508925 37.95984781 15.01472186 29.77961619 13.625 19.4375 C10.97526422 11.31494546 6.09755437 5.57749021 -1.28125 1.34375 C-12.9899178 -3.83877509 -25.22824457 -0.28161493 -33.12109375 9.49609375 Z " fill="#F5E8D5" transform="translate(452.375,302.5625)"/>
<path d="M0 0 C0.66 0 1.32 0 2 0 C2 0.66 2 1.32 2 2 C3.65 2 5.3 2 7 2 C7 1.34 7 0.68 7 0 C7.66 0 8.32 0 9 0 C9 0.66 9 1.32 9 2 C10.32 2 11.64 2 13 2 C13 7.94 13 13.88 13 20 C9.0709375 20.0309375 9.0709375 20.0309375 5.0625 20.0625 C4.2362915 20.071604 3.41008301 20.08070801 2.55883789 20.09008789 C0.70566241 20.09723945 -1.14749308 20.0502852 -3 20 C-4 19 -4 19 -4.09765625 15.40234375 C-4.0909822 13.91403133 -4.07902183 12.42573568 -4.0625 10.9375 C-4.05798828 10.17888672 -4.05347656 9.42027344 -4.04882812 8.63867188 C-4.0370068 6.75908129 -4.01907078 4.87953101 -4 3 C-2.68 2.67 -1.36 2.34 0 2 C0 1.34 0 0.68 0 0 Z " fill="#3EBB80" transform="translate(436,382)"/>
<path d="M0 0 C3.48793623 0.8498952 5.87892118 2.09357804 8.92578125 3.9765625 C12.9034662 6.38683257 16.88790881 8.71845278 20.98828125 10.9140625 C24.92505655 13.04128258 28.7448361 15.28336652 32.515625 17.69140625 C34.05089125 18.6696598 35.61183355 19.60734898 37.17578125 20.5390625 C39.23828125 21.7890625 39.23828125 21.7890625 40.23828125 22.7890625 C40.29292675 24.13927555 40.27930883 25.49235216 40.23730469 26.84301758 C40.21528992 27.70514359 40.19327515 28.56726959 40.17059326 29.45552063 C40.14652405 30.39703476 40.12245483 31.33854889 40.09765625 32.30859375 C40.06611352 35.3495117 40.04621749 38.39037836 40.02685547 41.43139648 C40.00137437 43.52552343 39.95457061 45.61951196 39.88525391 47.71264648 C39.07681438 60.51302238 39.07681438 60.51302238 44.06518555 71.78369141 C47.17899533 74.89032098 50.59973167 77.33091103 54.23828125 79.7890625 C55.69448658 81.01722058 57.13783053 82.26137846 58.55078125 83.5390625 C59.16308594 84.07015625 59.77539062 84.60125 60.40625 85.1484375 C66.14594229 90.28846045 71.31064528 95.87589934 76.23828125 101.7890625 C75.90828125 102.4490625 75.57828125 103.1090625 75.23828125 103.7890625 C74.80257812 103.26957031 74.366875 102.75007813 73.91796875 102.21484375 C69.8049676 97.39718623 69.8049676 97.39718623 65.11328125 93.1640625 C62.57923732 91.07072186 60.68731523 88.9408141 58.640625 86.390625 C54.1182797 81.22582953 48.47687373 77.10168984 42.90234375 73.1484375 C41.23828125 71.7890625 41.23828125 71.7890625 39.23828125 68.7890625 C39.10112 66.80067444 39.10112 66.80067444 39.25268555 64.50805664 C39.29975647 63.64582489 39.34682739 62.78359314 39.39532471 61.89523315 C39.45049255 60.9642984 39.5056604 60.03336365 39.5625 59.07421875 C41.3956072 39.07240003 41.3956072 39.07240003 36.13867188 20.49316406 C30.71874933 15.65380401 24.30218611 13.22060598 17.23828125 11.7890625 C17.23828125 11.1290625 17.23828125 10.4690625 17.23828125 9.7890625 C16.14966797 9.63630859 16.14966797 9.63630859 15.0390625 9.48046875 C11.94152803 8.71580543 10.04898167 7.51915342 7.42578125 5.7265625 C2.6703852 2.73928972 -0.22507547 2.17387991 -5.76171875 2.7890625 C-3.89471411 0.1960005 -3.26454296 -0.24934274 0 0 Z " fill="#D3B0B5" transform="translate(539.76171875,122.2109375)"/>
<path d="M0 0 C0.763125 0.680625 1.52625 1.36125 2.3125 2.0625 C3.6428125 3.0215625 3.6428125 3.0215625 5 4 C5.99 3.67 6.98 3.34 8 3 C8.33 2.34 8.66 1.68 9 1 C12.82097239 1.53069061 15.06171403 2.49701566 18 5 C17.8125 6.875 17.8125 6.875 17 9 C13.00883003 11.10255719 9.46419166 11.29806835 5 11.3125 C3.80375 11.32925781 2.6075 11.34601563 1.375 11.36328125 C-2.27082871 10.9708483 -4.19531087 10.35317668 -7 8 C-7 6.68 -7 5.36 -7 4 C-4.69 2.68 -2.38 1.36 0 0 Z " fill="#FFCA2A" transform="translate(396,277)"/>
<path d="M0 0 C0.495 0.99 0.495 0.99 1 2 C-2.5033347 7.64046645 -2.5033347 7.64046645 -6.23257446 8.53631592 C-9.02236572 8.69429458 -11.75781508 8.67415953 -14.55078125 8.5859375 C-15.56472458 8.57744781 -16.57866791 8.56895813 -17.62333679 8.56021118 C-20.85414976 8.52668868 -24.08244461 8.45140836 -27.3125 8.375 C-29.50582327 8.34489905 -31.69918575 8.31752348 -33.89257812 8.29296875 C-39.26257439 8.22690184 -44.6311073 8.12656549 -50 8 C-50 8.99 -50 9.98 -50 11 C-50.66 11 -51.32 11 -52 11 C-52.66 13.31 -53.32 15.62 -54 18 C-54.66 18 -55.32 18 -56 18 C-56.33 19.65 -56.66 21.3 -57 23 C-57.66 23 -58.32 23 -59 23 C-59.66 25.31 -60.32 27.62 -61 30 C-61.66 30 -62.32 30 -63 30 C-63.39638672 31.06734375 -63.39638672 31.06734375 -63.80078125 32.15625 C-65.45679222 36.08320761 -67.66627175 39.63087935 -69.85546875 43.28125 C-71.2085921 46.49549523 -71.12842654 47.73952333 -70 51 C-68.78292926 53.36826661 -68.78292926 53.36826661 -67.25 55.6875 C-65.05417811 59.23377893 -62.97747826 62.79341743 -61.0625 66.5 C-60.64097656 67.3146875 -60.21945313 68.129375 -59.78515625 68.96875 C-59.52605469 69.6390625 -59.26695313 70.309375 -59 71 C-59.495 71.99 -59.495 71.99 -60 73 C-60.43082886 72.26680542 -60.43082886 72.26680542 -60.87036133 71.51879883 C-62.18417289 69.28322788 -63.49833358 67.04786236 -64.8125 64.8125 C-65.26431641 64.04357422 -65.71613281 63.27464844 -66.18164062 62.48242188 C-66.84389648 61.35610352 -66.84389648 61.35610352 -67.51953125 60.20703125 C-67.9470166 59.47178223 -68.37450195 58.7365332 -68.81494141 57.97900391 C-69.75517489 56.40884885 -70.77665829 54.88739959 -71.82421875 53.38671875 C-73.46530721 50.05547273 -73.3982363 47.66946304 -73 44 C-71.80365188 41.44754299 -70.38863361 39.27559651 -68.74462891 36.99316406 C-66.02671978 33.06231279 -64.41531579 29.42448284 -62.96875 24.85546875 C-57.72631078 10.53250866 -57.72631078 10.53250866 -51 7 C-41.40846586 4.38930407 -30.91413171 5.17597277 -21.08935547 5.66113281 C-20.07659042 5.70760956 -19.06382538 5.7540863 -18.02037048 5.80197144 C-16.08533466 5.90582971 -14.15174396 6.0436795 -12.22193909 6.21975708 C-7.43118246 6.65580427 -7.43118246 6.65580427 -3.26712036 4.66436768 C-1.68344786 2.85788865 -1.68344786 2.85788865 0 0 Z " fill="#D1B1B4" transform="translate(182,224)"/>
<path d="M0 0 C0.70253906 0.32613281 1.40507812 0.65226562 2.12890625 0.98828125 C8.54931712 3.25071175 16.43150912 2.45966464 23 1 C23.33 2.32 23.66 3.64 24 5 C17.24598547 9.08795616 11.68277543 10.34409993 3.75390625 8.46875 C1.00531242 7.41731286 -0.69171113 6.59844309 -2.0625 3.9375 C-2 2 -2 2 0 0 Z " fill="#FCF5DB" transform="translate(429,407)"/>
<path d="M0 0 C4.06506061 1.18256309 7.1045594 3.08520202 10.671875 5.328125 C13.49095923 7.03231716 16.35145091 8.49573264 19.3125 9.9375 C24.62357717 12.52459687 29.63793065 15.45564061 34.6484375 18.58203125 C37.62395463 20.09479416 40.13720815 20.62518809 43.4375 21 C43.4375 21.66 43.4375 22.32 43.4375 23 C38.56085991 23.34833144 35.66699995 22.41685712 31.4375 20 C31.4375 19.34 31.4375 18.68 31.4375 18 C29.1275 17.34 26.8175 16.68 24.4375 16 C24.4375 15.34 24.4375 14.68 24.4375 14 C23.61378906 13.76539063 22.79007812 13.53078125 21.94140625 13.2890625 C17.02568438 11.48060295 12.74056127 8.80707609 8.27148438 6.1015625 C3.20384233 3.04025378 3.20384233 3.04025378 -2.5625 3 C-5.40613076 4.33684713 -5.40613076 4.33684713 -8.25 6.1875 C-12.18034724 8.5729147 -16.09951648 10.89370951 -20.1875 13 C-21.38246094 13.61875 -21.38246094 13.61875 -22.6015625 14.25 C-23.24867188 14.4975 -23.89578125 14.745 -24.5625 15 C-25.2225 14.67 -25.8825 14.34 -26.5625 14 C-20.43571745 10.25216339 -14.24264658 6.68635184 -7.91015625 3.296875 C-1.94201807 0 -1.94201807 0 0 0 Z " fill="#CFABAE" transform="translate(258.5625,122)"/>
<path d="M0 0 C0.66 0 1.32 0 2 0 C2 0.66 2 1.32 2 2 C3.65 2 5.3 2 7 2 C7 1.34 7 0.68 7 0 C7.66 0 8.32 0 9 0 C9 0.66 9 1.32 9 2 C10.32 2 11.64 2 13 2 C13 7.94 13 13.88 13 20 C9.0709375 20.0309375 9.0709375 20.0309375 5.0625 20.0625 C4.2362915 20.071604 3.41008301 20.08070801 2.55883789 20.09008789 C0.70566241 20.09723945 -1.14749308 20.0502852 -3 20 C-4 19 -4 19 -4.09765625 15.40234375 C-4.0909822 13.91403133 -4.07902183 12.42573568 -4.0625 10.9375 C-4.05798828 10.17888672 -4.05347656 9.42027344 -4.04882812 8.63867188 C-4.0370068 6.75908129 -4.01907078 4.87953101 -4 3 C-2.68 2.67 -1.36 2.34 0 2 C0 1.34 0 0.68 0 0 Z M-2 4 C-2 8.62 -2 13.24 -2 18 C2.62 18 7.24 18 12 18 C12 13.38 12 8.76 12 4 C7.38 4 2.76 4 -2 4 Z " fill="#E2F5EC" transform="translate(436,382)"/>
<path d="M0 0 C0.598125 0.20625 1.19625 0.4125 1.8125 0.625 C0.4925 0.955 -0.8275 1.285 -2.1875 1.625 C-1.8575 2.615 -1.5275 3.605 -1.1875 4.625 C1.91313523 5.65854508 4.12694068 5.75864996 7.375 5.75 C8.83099609 5.75386719 8.83099609 5.75386719 10.31640625 5.7578125 C12.81202953 5.79150953 12.81202953 5.79150953 14.8125 4.625 C15.03859337 2.50135519 15.03859337 2.50135519 13.3125 1 C12.8175 0.54625 12.3225 0.0925 11.8125 -0.375 C17.5625 0.375 17.5625 0.375 19.8125 2.625 C19.75 4.625 19.75 4.625 18.8125 6.625 C14.80907049 8.71150193 11.28361255 8.92304597 6.8125 8.9375 C5.61625 8.95425781 4.42 8.97101563 3.1875 8.98828125 C-0.45832871 8.5958483 -2.38281087 7.97817668 -5.1875 5.625 C-5.1875 4.305 -5.1875 2.985 -5.1875 1.625 C-2.1875 -0.375 -2.1875 -0.375 0 0 Z " fill="#FFFBF1" transform="translate(394.1875,279.375)"/>
<path d="M0 0 C0.66 0 1.32 0 2 0 C1.67 0.99 1.34 1.98 1 3 C0.88650152 4.45706917 0.82398525 5.91844959 0.79467773 7.37963867 C0.77473251 8.26032516 0.75478729 9.14101166 0.73423767 10.04838562 C0.71752518 10.99534805 0.70081268 11.94231049 0.68359375 12.91796875 C0.66281265 13.89034988 0.64203156 14.86273102 0.62062073 15.86457825 C0.55521252 18.97214665 0.49628071 22.07979985 0.4375 25.1875 C0.39430649 27.29362858 0.35069193 29.39974856 0.30664062 31.50585938 C0.19954001 36.67048591 0.09824781 41.83519778 0 47 C-0.66 47 -1.32 47 -2 47 C-2.0505963 40.62796407 -2.08568957 34.2559797 -2.10986328 27.88378906 C-2.11993789 25.71482406 -2.13359798 23.54587269 -2.15087891 21.37695312 C-2.17506323 18.26428874 -2.18646832 15.15180349 -2.1953125 12.0390625 C-2.20563507 11.065065 -2.21595764 10.0910675 -2.22659302 9.08755493 C-2.22674408 8.18677216 -2.22689514 7.28598938 -2.22705078 6.35791016 C-2.231492 5.56293121 -2.23593323 4.76795227 -2.24050903 3.94888306 C-2 2 -2 2 0 0 Z " fill="#A05D63" transform="translate(220,144)"/>
<path d="M0 0 C3.48793623 0.8498952 5.87892118 2.09357804 8.92578125 3.9765625 C12.9034662 6.38683257 16.88790881 8.71845278 20.98828125 10.9140625 C25.52689997 13.36648616 29.89119166 16.01558 34.23828125 18.7890625 C35.90188203 19.79415464 37.56702403 20.79675353 39.23828125 21.7890625 C38.90828125 22.4490625 38.57828125 23.1090625 38.23828125 23.7890625 C27.84328125 17.8490625 27.84328125 17.8490625 17.23828125 11.7890625 C17.23828125 11.1290625 17.23828125 10.4690625 17.23828125 9.7890625 C16.14966797 9.63630859 16.14966797 9.63630859 15.0390625 9.48046875 C11.94152803 8.71580543 10.04898167 7.51915342 7.42578125 5.7265625 C2.6703852 2.73928972 -0.22507547 2.17387991 -5.76171875 2.7890625 C-3.89471411 0.1960005 -3.26454296 -0.24934274 0 0 Z " fill="#D0B0B3" transform="translate(539.76171875,122.2109375)"/>
<path d="M0 0 C0.33 0 0.66 0 1 0 C0.57841665 6.57088531 -0.53102589 12.68902885 -2.26953125 19.0390625 C-2.9593788 21.83534295 -3.29484099 24.51933895 -3.625 27.375 C-4.4124477 31.52578363 -5.78874938 33.10374957 -9.25 35.5 C-12.70461617 37.47566095 -16.12916637 39.00747856 -20 40 C-17.08836898 36.84495288 -13.6916765 34.83477617 -10.05859375 32.59765625 C-6.94078344 30.17795148 -6.19684047 28.0966826 -5.5078125 24.2578125 C-5.38148437 23.22398437 -5.25515625 22.19015625 -5.125 21.125 C-4.09831601 13.83057587 -2.16965214 7.02503871 0 0 Z " fill="#D1AFB1" transform="translate(122,334)"/>
<path d="M0 0 C4.29 0 8.58 0 13 0 C13 0.66 13 1.32 13 2 C11.25 3.5078125 11.25 3.5078125 9 5.125 C8.2575 5.66382813 7.515 6.20265625 6.75 6.7578125 C6.1725 7.16773438 5.595 7.57765625 5 8 C2.5 6.8125 2.5 6.8125 0 5 C0 3.35 0 1.7 0 0 Z " fill="#2FB677" transform="translate(434,386)"/>
<path d="M0 0 C2.5 2.3125 2.5 2.3125 5 5 C5 5.99 5 6.98 5 8 C4.34 7.34 3.68 6.68 3 6 C0.09324817 5.97831363 0.09324817 5.97831363 -3.125 6.375 C-4.22070312 6.48585938 -5.31640625 6.59671875 -6.4453125 6.7109375 C-7.28835938 6.80632812 -8.13140625 6.90171875 -9 7 C-8.75390625 5.109375 -8.75390625 5.109375 -8 3 C-6.15234375 1.953125 -6.15234375 1.953125 -3.9375 1.25 C-2.83728516 0.88648438 -2.83728516 0.88648438 -1.71484375 0.515625 C-1.14894531 0.34546875 -0.58304687 0.1753125 0 0 Z " fill="#FBF4E8" transform="translate(421,346)"/>
<path d="M0 0 C1.6260287 0.06000106 3.25101549 0.1487885 4.875 0.25 C6.23238281 0.31960938 6.23238281 0.31960938 7.6171875 0.390625 C10 1 10 1 11.3203125 3.046875 C11.54460937 3.69140625 11.76890625 4.3359375 12 5 C7.48281619 6.36884358 4.41225737 5.47075246 0 4 C0 2.68 0 1.36 0 0 Z " fill="#FFF6DE" transform="translate(432,288)"/>
<path d="M0 0 C5.94 0 11.88 0 18 0 C18 0.99 18 1.98 18 3 C14.76724299 3.95530645 11.80324361 4.16460378 8.4375 4.1875 C7.48746094 4.20167969 6.53742188 4.21585937 5.55859375 4.23046875 C3 4 3 4 0 2 C0 1.34 0 0.68 0 0 Z " fill="#FEC413" transform="translate(431,409)"/>
<path d="M0 0 C0.99 0.33 1.98 0.66 3 1 C2.74658809 4.42106076 1.69217816 5.30782184 -0.8125 7.8125 C-4 10 -4 10 -6.375 9.8125 C-6.91125 9.544375 -7.4475 9.27625 -8 9 C-6.40758592 4.70048197 -3.64459275 2.60328053 0 0 Z " fill="#FFF7E2" transform="translate(482,318)"/>
<path d="M0 0 C3.75145553 0.84710286 7.35368566 1.78456189 11 3 C10.67 4.32 10.34 5.64 10 7 C6.7 6.34 3.4 5.68 0 5 C-0.33 3.68 -0.66 2.36 -1 1 C-0.67 0.67 -0.34 0.34 0 0 Z " fill="#FFF7E3" transform="translate(449,291)"/>
<path d="M0 0 C4.19360449 0.67097672 7.40334352 2.8558394 11 5 C10.67 5.99 10.34 6.98 10 8 C5.87248551 7.39301257 2.6678852 5.96189209 -1 4 C-0.67 2.68 -0.34 1.36 0 0 Z " fill="#FFF8E5" transform="translate(382,395)"/>
<path d="M0 0 C1.4589426 0.47730838 2.91713496 0.95691042 4.375 1.4375 C5.18710937 1.70433594 5.99921875 1.97117187 6.8359375 2.24609375 C9 3 9 3 11 4 C10.67 5.32 10.34 6.64 10 8 C8.5410574 7.52269162 7.08286504 7.04308958 5.625 6.5625 C4.81289063 6.29566406 4.00078125 6.02882813 3.1640625 5.75390625 C1 5 1 5 -1 4 C-0.67 2.68 -0.34 1.36 0 0 Z " fill="#FFF8E6" transform="translate(465,296)"/>
<path d="M0 0 C-1.45399296 3.83325416 -3.3080115 5.28279605 -7 7 C-9.8125 7.1875 -9.8125 7.1875 -12 7 C-12 6.01 -12 5.02 -12 4 C-10.390625 2.578125 -10.390625 2.578125 -8.25 1.25 C-7.55390625 0.80140625 -6.8578125 0.3528125 -6.140625 -0.109375 C-3.61526236 -1.16007332 -2.52143975 -0.93134261 0 0 Z " fill="#FFF8E5" transform="translate(393,360)"/>
<path d="M0 0 C0 0.99 0 1.98 0 3 C-1.4317616 3.69937202 -2.87067032 4.38412718 -4.3125 5.0625 C-5.51326172 5.63677734 -5.51326172 5.63677734 -6.73828125 6.22265625 C-9 7 -9 7 -12 6 C-12 5.01 -12 4.02 -12 3 C-10.5682384 2.30062798 -9.12932968 1.61587282 -7.6875 0.9375 C-6.48673828 0.36322266 -6.48673828 0.36322266 -5.26171875 -0.22265625 C-3 -1 -3 -1 0 0 Z " fill="#FFF9E8" transform="translate(408,353)"/>
<path d="M0 0 C5.18291484 7.77437226 10.6516885 16.24556055 14 25 C13.67 25.66 13.34 26.32 13 27 C12.71278076 26.51120361 12.42556152 26.02240723 12.12963867 25.51879883 C10.81582711 23.28322788 9.50166642 21.04786236 8.1875 18.8125 C7.73568359 18.04357422 7.28386719 17.27464844 6.81835938 16.48242188 C6.37685547 15.73154297 5.93535156 14.98066406 5.48046875 14.20703125 C4.83887817 13.11225464 4.83887817 13.11225464 4.18432617 11.99536133 C3.21140694 10.35617995 2.20406269 8.73747874 1.1875 7.125 C-0.23259003 4.58378627 -0.24573126 2.86686465 0 0 Z " fill="#CB9DA0" transform="translate(109,270)"/>
<path d="M0 0 C0.86625 0.37125 0.86625 0.37125 1.75 0.75 C0.09832443 4.3286304 -2.03286492 7.49820188 -4.25 10.75 C-5.24 10.42 -6.23 10.09 -7.25 9.75 C-6.9314443 6.24588735 -6.55932553 4.1659895 -4.4375 1.3125 C-2.25 -0.25 -2.25 -0.25 0 0 Z " fill="#FFF9EA" transform="translate(377.25,369.25)"/>
<path d="M0 0 C2.97454134 0.32157204 4.59335278 0.62139742 6.8125 2.6875 C8.3082321 5.60024146 8.22022756 7.76999584 8 11 C7.01 11 6.02 11 5 11 C3.61328125 9.35546875 3.61328125 9.35546875 2.3125 7.1875 C1.87550781 6.47980469 1.43851562 5.77210938 0.98828125 5.04296875 C0 3 0 3 0 0 Z " fill="#FFF9E8" transform="translate(479,304)"/>
<path d="M0 0 C1.75 0.125 1.75 0.125 4 1 C8 6.11111111 8 6.11111111 8 10 C5.75 9.875 5.75 9.875 3 9 C0.625 6.125 0.625 6.125 -1 3 C-0.67 2.01 -0.34 1.02 0 0 Z " fill="#FFF9EA" transform="translate(370,384)"/>
<path d="M0 0 C7.42857143 1 7.42857143 1 11 2 C11 3.32 11 4.64 11 6 C9.741875 5.87625 8.48375 5.7525 7.1875 5.625 C6.12595703 5.52058594 6.12595703 5.52058594 5.04296875 5.4140625 C3 5 3 5 0 3 C0 2.01 0 1.02 0 0 Z " fill="#FFFAED" transform="translate(397,403)"/>
<path d="M0 0 C0.99 0.33 1.98 0.66 3 1 C3 1.99 3 2.98 3 4 C6.3 4.99 9.6 5.98 13 7 C13 7.33 13 7.66 13 8 C11.2507786 8.08142927 9.50045458 8.13938541 7.75 8.1875 C6.28820312 8.23970703 6.28820312 8.23970703 4.796875 8.29296875 C1.62531258 7.96075202 0.32959693 7.11327721 -2 5 C-1.125 1.125 -1.125 1.125 0 0 Z " fill="#FCF7E3" transform="translate(429,407)"/>
<path d="M0 0 C5.15504454 -0.64438057 8.01174765 0.77056835 12.1640625 3.5546875 C14.53668502 5.42249672 16.2966727 7.51598102 18 10 C17.34 10.66 16.68 11.32 16 12 C15.01 10.63875 15.01 10.63875 14 9.25 C11.37012668 6.06409632 8.60796831 4.51870968 4.8671875 2.859375 C3 2 3 2 0 0 Z " fill="#F5EAE1" transform="translate(445,302)"/>
<path d="M0 0 C5.75 0.75 5.75 0.75 8 3 C8 5 8 5 7 7 C3.9375 8.25 3.9375 8.25 1 9 C1 8.01 1 7.02 1 6 C1.66 5.67 2.32 5.34 3 5 C3.22609337 2.87635519 3.22609337 2.87635519 1.5 1.375 C1.005 0.92125 0.51 0.4675 0 0 Z " fill="#FFF7E0" transform="translate(406,279)"/>
<path d="M0 0 C0.99 0.33 1.98 0.66 3 1 C0.69 3.31 -1.62 5.62 -4 8 C-5.7074998 6.71937515 -7.37373596 5.38232443 -9 4 C-9 3.34 -9 2.68 -9 2 C-6.525 2.99 -6.525 2.99 -4 4 C-2.68 2.68 -1.36 1.36 0 0 Z " fill="#D7F1E5" transform="translate(444,389)"/>
<path d="M0 0 C2.31 0.33 4.62 0.66 7 1 C7 2.32 7 3.64 7 5 C4.69 4.67 2.38 4.34 0 4 C0 2.68 0 1.36 0 0 Z " fill="#FFF9E7" transform="translate(413,408)"/>
<path d="M0 0 C2.31 0 4.62 0 7 0 C7.33 1.32 7.66 2.64 8 4 C5.69 4 3.38 4 1 4 C0.67 2.68 0.34 1.36 0 0 Z " fill="#FFFBEF" transform="translate(419,286)"/>
<path d="M0 0 C4.29744063 0.48834553 6.69998698 1.23224715 10 4 C11.65661761 5.01656081 13.32111559 6.02065076 15 7 C14.67 7.66 14.34 8.32 14 9 C7.07 5.04 7.07 5.04 0 1 C0 0.67 0 0.34 0 0 Z " fill="#C19A9D" transform="translate(564,137)"/>
<path d="M0 0 C0.80050781 0.03480469 1.60101563 0.06960938 2.42578125 0.10546875 C3.63814453 0.14607422 3.63814453 0.14607422 4.875 0.1875 C5.48988281 0.22230469 6.10476563 0.25710938 6.73828125 0.29296875 C6.40828125 1.28296875 6.07828125 2.27296875 5.73828125 3.29296875 C2.10828125 3.29296875 -1.52171875 3.29296875 -5.26171875 3.29296875 C-2.26171875 0.29296875 -2.26171875 0.29296875 0 0 Z " fill="#FFF1C9" transform="translate(440.26171875,412.70703125)"/>
<path d="M0 0 C1.65 0.33 3.3 0.66 5 1 C4.67 1.99 4.34 2.98 4 4 C1.69 4 -0.62 4 -3 4 C-2.01 2.68 -1.02 1.36 0 0 Z " fill="#FFC10A" transform="translate(405,281)"/>
<path d="M0 0 C0 0.99 0 1.98 0 3 C-3.96 2.67 -7.92 2.34 -12 2 C-12 1.67 -12 1.34 -12 1 C-10.56274129 0.83126522 -9.12518162 0.66509263 -7.6875 0.5 C-6.88699219 0.4071875 -6.08648437 0.314375 -5.26171875 0.21875 C-3 0 -3 0 0 0 Z " fill="#E1C11D" transform="translate(449,409)"/>
<path d="M0 0 C3.53586014 3.17320782 5.58578031 5.16743695 6 10 C3.38275905 7.63202009 1.67138271 5.10399646 0 2 C0 1.34 0 0.68 0 0 Z " fill="#D3B5B7" transform="translate(117,287)"/>
<path d="M0 0 C1 3 1 3 -0.4375 6.1875 C-1.2109375 7.5796875 -1.2109375 7.5796875 -2 9 C-2.66 8.67 -3.32 8.34 -4 8 C-2.87548273 5.0280615 -1.77706209 2.66559313 0 0 Z " fill="#F5E7D1" transform="translate(419,309)"/>
</svg>
